{
  "asset": {
    "generator": "Khronos glTF Blender I/O v4.4.56",
    "version": "2.0"
  },
  "scene": 0,
  "scenes": [
    {
      "name": "Scene",
      "nodes": [
        0,
        1
      ]
    }
  ],
  "nodes": [
    {
      "mesh": 0,
      "name": "shadeWhite",
      "rotation": [
        -0.7071068286895752,
        0,
        0,
        0.7071068286895752
      ],
      "scale": [
        -1,
        -1,
        -1
      ],
      "translation": [
        1.6418161392211914,
        -0.2897777557373047,
        -1.1598793268203735
      ]
    },
    {
      "mesh": 1,
      "name": "shadeGray",
      "rotation": [
        0.5,
        0.5,
        0.5,
        0.5000000596046448
      ],
      "scale": [
        0.3112068176269531,
        0.7915517687797546,
        1
      ],
      "translation": [
        3.3636274337768555,
        3.1046302318573,
        -1.3125100135803223
      ]
    }
  ],
  "meshes": [
    {
      "name": "Cube.003",
      "primitives": [
        {
          "attributes": {
            "POSITION": 0,
            "NORMAL": 1,
            "TEXCOORD_0": 2
          },
          "indices": 3
        }
      ]
    },
    {
      "name": "Cube.005",
      "primitives": [
        {
          "attributes": {
            "POSITION": 4,
            "NORMAL": 5,
            "TEXCOORD_0": 6
          },
          "indices": 7
        }
      ]
    }
  ],
  "accessors": [
    {
      "bufferView": 0,
      "componentType": 5126,
      "count": 191,
      "max": [
        3.638183832168579,
        0.6844844818115234,
        2.5182082653045654
      ],
      "min": [
        -2.361816167831421,
        -0.6490308046340942,
        -3.488421678543091
      ],
      "type": "VEC3"
    },
    {
      "bufferView": 1,
      "componentType": 5126,
      "count": 191,
      "type": "VEC3"
    },
    {
      "bufferView": 2,
      "componentType": 5126,
      "count": 191,
      "type": "VEC2"
    },
    {
      "bufferView": 3,
      "componentType": 5123,
      "count": 408,
      "type": "SCALAR"
    },
    {
      "bufferView": 4,
      "componentType": 5126,
      "count": 1536,
      "max": [
        0.5186516642570496,
        0.863262414932251,
        0.7443011999130249
      ],
      "min": [
        -19.176910400390625,
        -0.5351212024688721,
        -5.469730377197266
      ],
      "type": "VEC3"
    },
    {
      "bufferView": 5,
      "componentType": 5126,
      "count": 1536,
      "type": "VEC3"
    },
    {
      "bufferView": 6,
      "componentType": 5126,
      "count": 1536,
      "type": "VEC2"
    },
    {
      "bufferView": 7,
      "componentType": 5123,
      "count": 2304,
      "type": "SCALAR"
    }
  ],
  "bufferViews": [
    {
      "buffer": 0,
      "byteLength": 2292,
      "byteOffset": 0,
      "target": 34962
    },
    {
      "buffer": 0,
      "byteLength": 2292,
      "byteOffset": 2292,
      "target": 34962
    },
    {
      "buffer": 0,
      "byteLength": 1528,
      "byteOffset": 4584,
      "target": 34962
    },
    {
      "buffer": 0,
      "byteLength": 816,
      "byteOffset": 6112,
      "target": 34963
    },
    {
      "buffer": 0,
      "byteLength": 18432,
      "byteOffset": 6928,
      "target": 34962
    },
    {
      "buffer": 0,
      "byteLength": 18432,
      "byteOffset": 25360,
      "target": 34962
    },
    {
      "buffer": 0,
      "byteLength": 12288,
      "byteOffset": 43792,
      "target": 34962
    },
    {
      "buffer": 0,
      "byteLength": 4608,
      "byteOffset": 56080,
      "target": 34963
    }
  ],
  "buffers": [
    {
      "uri": "Kapsul_BlockOut_data.bin",
      "byteLength": 60688
    }
  ]
}