{
  "asset": {
    "generator": "Khronos glTF Blender I/O v4.4.56",
    "version": "2.0"
  },
  "scene": 0,
  "scenes": [
    {
      "name": "Scene",
      "nodes": [
        0,
        1,
        2
      ]
    }
  ],
  "nodes": [
    {
      "mesh": 0,
      "name": "shadeWhite",
      "rotation": [
        0.70710688829422,
        0,
        0,
        0.7071066498756409
      ],
      "translation": [
        0,
        0,
        2.0338621139526367
      ]
    },
    {
      "mesh": 1,
      "name": "pureUc",
      "rotation": [
        0.70710688829422,
        0,
        0,
        0.7071066498756409
      ],
      "translation": [
        0,
        0,
        2.0338621139526367
      ]
    },
    {
      "mesh": 2,
      "name": "shadeBlack",
      "rotation": [
        0.70710688829422,
        0,
        0,
        0.7071066498756409
      ],
      "translation": [
        0,
        0,
        2.0338621139526367
      ]
    }
  ],
  "meshes": [
    {
      "name": "Cube.001",
      "primitives": [
        {
          "attributes": {
            "POSITION": 0,
            "NORMAL": 1,
            "TEXCOORD_0": 2
          },
          "indices": 3
        }
      ]
    },
    {
      "name": "Cube.002",
      "primitives": [
        {
          "attributes": {
            "POSITION": 4,
            "NORMAL": 5,
            "TEXCOORD_0": 6
          },
          "indices": 7
        }
      ]
    },
    {
      "name": "Cube.003",
      "primitives": [
        {
          "attributes": {
            "POSITION": 8,
            "NORMAL": 9,
            "TEXCOORD_0": 10
          },
          "indices": 11
        }
      ]
    }
  ],
  "accessors": [
    {
      "bufferView": 0,
      "componentType": 5126,
      "count": 67,
      "max": [
        3,
        2,
        3
      ],
      "min": [
        -3,
        -2,
        -3
      ],
      "type": "VEC3"
    },
    {
      "bufferView": 1,
      "componentType": 5126,
      "count": 67,
      "type": "VEC3"
    },
    {
      "bufferView": 2,
      "componentType": 5126,
      "count": 67,
      "type": "VEC2"
    },
    {
      "bufferView": 3,
      "componentType": 5123,
      "count": 180,
      "type": "SCALAR"
    },
    {
      "bufferView": 4,
      "componentType": 5126,
      "count": 52,
      "max": [
        3,
        2,
        3
      ],
      "min": [
        -2.9000000953674316,
        -1.9500000476837158,
        -2.9000000953674316
      ],
      "type": "VEC3"
    },
    {
      "bufferView": 5,
      "componentType": 5126,
      "count": 52,
      "type": "VEC3"
    },
    {
      "bufferView": 6,
      "componentType": 5126,
      "count": 52,
      "type": "VEC2"
    },
    {
      "bufferView": 7,
      "componentType": 5123,
      "count": 78,
      "type": "SCALAR"
    },
    {
      "bufferView": 8,
      "componentType": 5126,
      "count": 235,
      "max": [
        7.184804916381836,
        0.75,
        6.922534465789795
      ],
      "min": [
        4.880305767059326,
        -2,
        4.618035316467285
      ],
      "type": "VEC3"
    },
    {
      "bufferView": 9,
      "componentType": 5126,
      "count": 235,
      "type": "VEC3"
    },
    {
      "bufferView": 10,
      "componentType": 5126,
      "count": 235,
      "type": "VEC2"
    },
    {
      "bufferView": 11,
      "componentType": 5123,
      "count": 474,
      "type": "SCALAR"
    }
  ],
  "bufferViews": [
    {
      "buffer": 0,
      "byteLength": 804,
      "byteOffset": 0,
      "target": 34962
    },
    {
      "buffer": 0,
      "byteLength": 804,
      "byteOffset": 804,
      "target": 34962
    },
    {
      "buffer": 0,
      "byteLength": 536,
      "byteOffset": 1608,
      "target": 34962
    },
    {
      "buffer": 0,
      "byteLength": 360,
      "byteOffset": 2144,
      "target": 34963
    },
    {
      "buffer": 0,
      "byteLength": 624,
      "byteOffset": 2504,
      "target": 34962
    },
    {
      "buffer": 0,
      "byteLength": 624,
      "byteOffset": 3128,
      "target": 34962
    },
    {
      "buffer": 0,
      "byteLength": 416,
      "byteOffset": 3752,
      "target": 34962
    },
    {
      "buffer": 0,
      "byteLength": 156,
      "byteOffset": 4168,
      "target": 34963
    },
    {
      "buffer": 0,
      "byteLength": 2820,
      "byteOffset": 4324,
      "target": 34962
    },
    {
      "buffer": 0,
      "byteLength": 2820,
      "byteOffset": 7144,
      "target": 34962
    },
    {
      "buffer": 0,
      "byteLength": 1880,
      "byteOffset": 9964,
      "target": 34962
    },
    {
      "buffer": 0,
      "byteLength": 948,
      "byteOffset": 11844,
      "target": 34963
    }
  ],
  "buffers": [
    {
      "uri": "GreenScreenRoom_data.bin",
      "byteLength": 12792
    }
  ]
}